# xmcd
#
# Track frame offsets:
#       150
#       29960
#       51772
#       72990
#       93632
#       101027
#       123480
#       139340
#       157990
#       171807
#       199355
#       216147
#       227102
#
# Disc length: 3164 seconds
#
# Revision: 0
# Processed by: cddbd v1.4PL0 Copyright (c) Steve Scherf et al.
# Submitted via: CD-DA_X-Tractor v0.21
#
DISCID=c80c5a0d
DTITLE=Eelc gelling and the blues con - The Blues
DYEAR=1900
DGENRE=
TTITLE0=backstreet
TTITLE1=Little red rooster
TTITLE2=distant smile
TTITLE3=to busy to br blue
TTITLE4=instrumental part 1
TTITLE5=feel so bad
TTITLE6=house on the hill
TTITLE7=the actor
TTITLE8=on the double
TTITLE9=instincts
TTITLE10=I`ve seen worse
TTITLE11=flatfoot sam
TTITLE12=instrumental part 2 and 3
EXTD=
EXTT0=
EXTT1=
EXTT2=
EXTT3=
EXTT4=
EXTT5=
EXTT6=
EXTT7=
EXTT8=
EXTT9=
EXTT10=
EXTT11=
EXTT12=
PLAYORDER=
